<svg xmlns="http://www.w3.org/2000/svg" x="0px" y="0px"width="64" height="64"viewBox="0 0 172 172"style=" fill:#000000;"><g fill="none" fill-rule="nonzero" stroke="none" stroke-width="1" stroke-linecap="butt" stroke-linejoin="miter" stroke-miterlimit="10" stroke-dasharray="" stroke-dashoffset="0" font-family="none" font-weight="none" font-size="none" text-anchor="none" style="mix-blend-mode: normal"><path d="M0,172v-172h172v172z" fill="#e67e22"></path><g fill="#000000"><path d="M50.39063,13.4375c-12.83088,0 -22.93251,5.54028 -29.60449,13.61072c-6.67198,8.07044 -10.03613,18.57836 -10.03613,28.82239c0,20.24224 10.33248,43.34514 14.28259,63.36096c1.44732,7.34285 3.2334,18.35584 3.2334,18.35583c0.43152,2.83095 1.45185,9.31102 5.51672,15.22217c4.07153,5.92084 11.46674,11.12793 23.32666,11.12793c6.1828,0 12.85398,-1.87462 17.91492,-7.02844c5.06093,-5.15382 8.28821,-13.37455 8.28821,-25.34229c0,-8.7749 -3.35937,-21.35368 -3.35937,-34.90076c0,-20.67265 3.35938,-31.36598 3.35938,-50.85254c0,-10.47956 -3.8076,-18.75471 -9.90491,-24.22949c-6.0973,-5.47478 -14.33019,-8.14648 -23.01697,-8.14648zM121.60938,13.4375c-8.68678,0 -16.91967,2.67208 -23.01697,8.14648c-6.09729,5.4744 -9.90491,13.74594 -9.90491,24.22424c0,19.48391 3.35938,30.17716 3.35938,50.85254c0,13.54708 -3.35937,26.12585 -3.35937,34.90076c0,11.96903 3.22728,20.19334 8.28821,25.34754c5.06093,5.1542 11.73212,7.02844 17.91492,7.02844c11.85992,0 19.25513,-5.20672 23.32666,-11.12793c4.06329,-5.90922 5.08488,-12.38795 5.51672,-15.22217v-0.0105c0.00198,-0.01209 1.78681,-11.00355 3.2334,-18.34534c3.95011,-20.01584 14.28259,-43.12128 14.28259,-63.36096c0,-10.24151 -3.36425,-20.75134 -10.03613,-28.82239c-6.67188,-8.07104 -16.77342,-13.61072 -29.60449,-13.61072zM50.39063,18.8125c7.58604,0 14.4697,2.32511 19.42139,6.77124c4.95168,4.44613 8.12549,11.02068 8.12549,20.22974c0,18.85869 -3.35937,29.60556 -3.35937,50.85254c0,14.40829 3.35938,27.62591 3.35938,34.90076c0,11.01576 -2.87927,17.63672 -6.75024,21.57874c-3.87097,3.94202 -8.95705,5.41699 -14.07788,5.41699c-10.36571,0 -15.63988,-4.06159 -18.89648,-8.79736c-3.25661,-4.73577 -4.22387,-10.28083 -4.64014,-13.01233c-0.00172,-0.00701 -0.00347,-0.01401 -0.00525,-0.021c0,0 -1.78284,-11.02053 -3.26489,-18.53955c-4.13377,-20.94709 -14.17761,-43.97139 -14.17761,-62.32166c0,-9.05491 3.0394,-18.42248 8.80786,-25.40002c5.76846,-6.97754 14.14414,-11.65808 25.45776,-11.65808zM121.60938,18.8125c11.31342,0 19.68921,4.68505 25.45776,11.66333c5.76856,6.97828 8.80786,16.34272 8.80786,25.39477c0,18.34744 -10.04372,41.36936 -14.17761,62.31641c0,0.00175 0,0.0035 0,0.00525c-1.48198,7.52126 -3.26489,18.5343 -3.26489,18.5343c-0.00179,0.00874 -0.00354,0.01749 -0.00525,0.02625c-0.41624,2.73265 -1.38352,8.27626 -4.64014,13.01233c-3.25649,4.73598 -8.53078,8.79736 -18.89648,8.79736c-5.12083,0 -10.2069,-1.47467 -14.07788,-5.41699c-3.87098,-3.94232 -6.75024,-10.56683 -6.75024,-21.58398c0,-7.27485 3.35938,-20.49246 3.35938,-34.90076c0,-21.24963 -3.35937,-31.99658 -3.35937,-50.85254c0,-9.20763 3.16855,-15.77865 8.12024,-20.22449c4.95169,-4.44583 11.8406,-6.77124 19.42664,-6.77124zM46.82129,32.25c-31.10512,22.07781 -17.37124,72.10466 -14.14087,77.41785c8.16463,13.44556 14.68962,0.07063 8.073,-2.71899c-11.60731,-6.708 -9.009,-54.59459 6.06787,-64.69421c11.91906,13.13381 23.57987,31.36858 14.45581,56.65796c-4.75419,8.07593 5.1702,16.94725 7.30139,1.68494c0.53481,-4.3215 1.29651,-7.27548 1.29651,-23.27417c0,-13.11769 -8.08702,-37.38174 -23.05371,-45.07336zM125.17871,32.25c-14.96669,7.69163 -23.05371,31.95568 -23.05371,45.07336c0,16.00138 0.76438,18.95511 1.29651,23.28467c2.13119,15.25962 12.05571,6.38831 7.29614,-1.68494c-9.11869,-25.29206 2.54468,-43.53465 14.46106,-56.66846c15.07688,10.09962 17.66981,57.98621 6.06787,64.69421c-6.61662,2.78963 -0.08638,16.16456 8.07825,2.71899c3.22769,-5.31588 16.95901,-55.34004 -14.14612,-77.41785zM44.88965,123.54102l-5.29102,0.92383c-1.45931,0.25531 -2.43891,1.64542 -2.18359,3.10742c0.22844,1.30612 1.35832,2.22559 2.64026,2.22559c0.15319,0 0.31129,-0.01512 0.46716,-0.04199l5.29626,-0.92383c1.45931,-0.25531 2.43891,-1.64811 2.18359,-3.10742c-0.25531,-1.45931 -1.63455,-2.43353 -3.11267,-2.18359zM127.11035,123.54102c-1.45663,-0.2365 -2.85467,0.72159 -3.11267,2.18359c-0.25531,1.462 0.72159,2.85736 2.18359,3.11267l5.29626,0.92383c0.15588,0.02687 0.31398,0.04199 0.46716,0.04199c1.28194,0 2.41182,-0.91946 2.64026,-2.22559c0.25531,-1.462 -0.72159,-2.85736 -2.18359,-3.11267zM48.05481,136.2699c-0.34795,-0.03141 -0.7069,0.00395 -1.0603,0.11548l-5.1178,1.64819c-1.41362,0.45687 -2.18636,1.96943 -1.73218,3.38037c0.36819,1.13681 1.42471,1.8634 2.56152,1.8634c0.27412,0 0.54741,-0.03998 0.81885,-0.12598l5.1178,-1.64819c1.41363,-0.45687 2.18637,-1.96943 1.73218,-3.38037c-0.33862,-1.06022 -1.27623,-1.75867 -2.32007,-1.8529zM123.94519,136.28039c-1.04346,0.09549 -1.9762,0.79672 -2.31482,1.85291c-0.45419,1.41631 0.3238,2.92887 1.73743,3.38037l5.1178,1.6377c0.27144,0.086 0.54741,0.13123 0.81885,0.13123c1.1395,0 2.19346,-0.72915 2.55627,-1.86865c0.45419,-1.41631 -0.3238,-2.92887 -1.73743,-3.38037l-5.1178,-1.6377c-0.35408,-0.11153 -0.71248,-0.14731 -1.0603,-0.11548zM63.06702,138.40625c-1.04724,0.02167 -2.02961,0.66465 -2.4408,1.70068c-0.54825,1.37869 0.12778,2.9371 1.50647,3.48535l4.99182,1.98938c0.32519,0.13169 0.6615,0.18896 0.99207,0.18896c1.06963,0 2.07929,-0.63925 2.49854,-1.69543c0.54825,-1.37869 -0.12253,-2.94235 -1.50122,-3.4906l-4.99707,-1.98413c-0.34467,-0.13841 -0.70073,-0.20144 -1.0498,-0.19421zM108.93298,138.40625c-0.34933,-0.00718 -0.70379,0.05581 -1.0498,0.19421l-4.99707,1.98938c-1.37869,0.54825 -2.04947,2.11191 -1.50122,3.4906c0.42194,1.0535 1.4316,1.69018 2.49854,1.69018c0.33056,0 0.66688,-0.05728 0.99207,-0.18896l4.99707,-1.98938c1.37869,-0.54825 2.04947,-2.11192 1.50122,-3.4906c-0.41119,-1.03402 -1.3928,-1.67389 -2.4408,-1.69543zM55.29846,142.36401c-1.47544,-0.13975 -2.78152,0.95473 -2.91321,2.43555l-0.48291,5.35401c-0.13169,1.47812 0.96267,2.77883 2.4408,2.91321c0.08063,0.00806 0.16083,0.01575 0.24146,0.01575c1.376,0 2.54544,-1.0538 2.67175,-2.4513l0.48291,-5.354c0.13169,-1.47813 -0.96267,-2.77883 -2.4408,-2.91321zM116.70154,142.36401c-1.48081,0.13438 -2.56723,1.43508 -2.43555,2.91321l0.47766,5.354c0.12631,1.3975 1.301,2.4513 2.677,2.4513c0.08062,0 0.16083,-0.00769 0.24146,-0.01575c1.48081,-0.13437 2.56723,-1.43508 2.43555,-2.91321l-0.47766,-5.35401c-0.13169,-1.48081 -1.44571,-2.57798 -2.91846,-2.43555z"></path></g></g></svg>